<svg width="101" height="28" viewBox="0 0 101 28" fill="none" xmlns="http://www.w3.org/2000/svg">
<path d="M1.15562 22.7295V4.79983H8.92981C10.2955 4.79983 11.4424 4.98368 12.3704 5.35138C13.3043 5.71907 14.0076 6.23852 14.4803 6.90971C14.9589 7.58091 15.1982 8.37175 15.1982 9.28224C15.1982 9.94177 15.0523 10.5429 14.7605 11.0857C14.4745 11.6285 14.0718 12.0838 13.5523 12.4515C13.0329 12.8133 12.4259 13.0643 11.7313 13.2044V13.3795C12.5017 13.4086 13.2021 13.6042 13.8325 13.966C14.4628 14.322 14.9647 14.8152 15.3383 15.4456C15.7118 16.0701 15.8986 16.8055 15.8986 17.6518C15.8986 18.6323 15.6418 19.5048 15.1282 20.2694C14.6204 21.034 13.8967 21.6352 12.957 22.0729C12.0173 22.5106 10.8967 22.7295 9.59517 22.7295H1.15562ZM6.02325 18.8424H8.29947C9.11658 18.8424 9.72941 18.6906 10.138 18.3872C10.5465 18.0778 10.7508 17.6226 10.7508 17.0214C10.7508 16.6012 10.6545 16.2452 10.4619 15.9533C10.2693 15.6615 9.99497 15.4397 9.63895 15.288C9.28876 15.1362 8.86561 15.0604 8.36951 15.0604H6.02325V18.8424ZM6.02325 12.0487H8.01932C8.44539 12.0487 8.82184 11.9816 9.14868 11.8474C9.47552 11.7131 9.72941 11.5205 9.91034 11.2696C10.0971 11.0128 10.1905 10.7005 10.1905 10.3328C10.1905 9.77834 9.99205 9.3552 9.59517 9.06338C9.19829 8.76572 8.69635 8.61689 8.08936 8.61689H6.02325V12.0487ZM17.183 22.7295V4.79983H24.9222C26.2529 4.79983 27.4173 5.04204 28.4153 5.52647C29.4134 6.0109 30.1896 6.70836 30.7441 7.61885C31.2985 8.52934 31.5758 9.62076 31.5758 10.8931C31.5758 12.1771 31.2898 13.2598 30.7178 14.1411C30.1517 15.0224 29.355 15.6878 28.3278 16.1372C27.3064 16.5866 26.1128 16.8113 24.7471 16.8113H20.1246V13.0293H23.7666C24.3385 13.0293 24.8259 12.9592 25.2286 12.8192C25.6372 12.6732 25.9494 12.4427 26.1654 12.1275C26.3871 11.8124 26.498 11.4009 26.498 10.8931C26.498 10.3795 26.3871 9.96219 26.1654 9.64119C25.9494 9.31434 25.6372 9.07505 25.2286 8.9233C24.8259 8.76571 24.3385 8.68692 23.7666 8.68692H22.0506V22.7295H17.183ZM27.6887 14.5001L32.1711 22.7295H26.8832L22.5059 14.5001H27.6887ZM37.8679 22.7295H32.6151L38.5333 4.79983H45.1869L51.105 22.7295H45.8522L41.9301 9.73749H41.79L37.8679 22.7295ZM36.8874 15.6557H46.7627V19.2976H36.8874V15.6557ZM67.905 4.79983V22.7295H63.8428L57.3644 13.3094H57.2593V22.7295H52.3917V4.79983H56.5239L62.8973 14.1849H63.0374V4.79983H67.905ZM76.666 22.7295H69.7673V4.79983H76.596C78.4403 4.79983 80.0337 5.15877 81.3761 5.87666C82.7243 6.58871 83.7632 7.61593 84.4927 8.95832C85.2281 10.2949 85.5958 11.897 85.5958 13.7647C85.5958 15.6323 85.231 17.2374 84.5015 18.5798C83.7719 19.9163 82.7389 20.9435 81.4023 21.6614C80.0658 22.3735 78.487 22.7295 76.666 22.7295ZM74.6349 18.5973H76.4909C77.3781 18.5973 78.1339 18.4543 78.7584 18.1683C79.3887 17.8823 79.8673 17.3891 80.1942 16.6887C80.5268 15.9884 80.6932 15.0137 80.6932 13.7647C80.6932 12.5157 80.5239 11.541 80.1854 10.8406C79.8527 10.1402 79.3625 9.64702 78.7146 9.36104C78.0726 9.07505 77.2847 8.93205 76.3508 8.93205H74.6349V18.5973Z" fill="white"/>
<path d="M87.2218 3.06031V1.75294H92.4163V3.06031H90.6186V7.72949H89.0194V3.06031H87.2218ZM92.8801 1.75294H94.8996L96.2887 5.1381H96.3587L97.7478 1.75294H99.7672V7.72949H98.1797V4.2743H98.133L96.8023 7.6828H95.8451L94.5144 4.25095H94.4677V7.72949H92.8801V1.75294Z" fill="white"/>
</svg>
